<svg id="Objects" xmlns="http://www.w3.org/2000/svg" viewBox="0 0 290 430"><defs><style>.cls-1{fill:#e4332a;}.cls-2{fill:#00384c;}.cls-3{fill:#129f99;}.cls-4{fill:#fff;opacity:0.2;}.cls-5{fill:#326070;}.cls-6,.cls-7{fill:#0e7873;}.cls-6{opacity:0.5;}.cls-8{fill:#f29101;}.cls-9{fill:#f5a633;}</style></defs><title>car_green</title><path class="cls-1" d="M201.8,397.94a5.8,5.8,0,0,1-5.8,5.8h0a5.8,5.8,0,0,1-5.8-5.8v-9.18A5.8,5.8,0,0,1,196,383h0a5.8,5.8,0,0,1,5.8,5.8Z"/><path class="cls-1" d="M99.8,397.94a5.8,5.8,0,0,1-5.8,5.8h0a5.8,5.8,0,0,1-5.8-5.8v-9.18A5.8,5.8,0,0,1,94,383h0a5.8,5.8,0,0,1,5.8,5.8Z"/><path class="cls-2" d="M232.15,350.45a9.88,9.88,0,0,1-9.91,9.84h0a9.88,9.88,0,0,1-9.92-9.84V302.07a9.88,9.88,0,0,1,9.92-9.84h0a9.87,9.87,0,0,1,9.91,9.84Z"/><path class="cls-2" d="M232.15,176.15a9.88,9.88,0,0,1-9.91,9.84h0a9.88,9.88,0,0,1-9.92-9.84V127.77a9.88,9.88,0,0,1,9.92-9.84h0a9.87,9.87,0,0,1,9.91,9.84Z"/><path class="cls-2" d="M77.68,350.45a9.88,9.88,0,0,1-9.91,9.84h0a9.88,9.88,0,0,1-9.92-9.84V302.07a9.88,9.88,0,0,1,9.92-9.84h0a9.87,9.87,0,0,1,9.91,9.84Z"/><path class="cls-2" d="M77.68,176.15A9.88,9.88,0,0,1,67.77,186h0a9.88,9.88,0,0,1-9.92-9.84V127.77a9.88,9.88,0,0,1,9.92-9.84h0a9.87,9.87,0,0,1,9.91,9.84Z"/><path class="cls-3" d="M226,94.65c0-44.73-36.25-68.39-81-68.39h0c-44.74,0-81,23.66-81,68.39V351.33c0,44.73,36.25,51.09,81,51.09h0c44.73,0,81-6.36,81-51.09Z"/><path class="cls-4" d="M203.32,155.47V86.16c0-32.2-26.11-49.24-58.31-49.24h0c-32.21,0-58.32,17-58.32,49.24v69.31"/><path class="cls-2" d="M76.76,167.09V105c0-11.6,11.24-21,25.14-21h86.22c13.89,0,25.14,9.4,25.14,21v62.14"/><path class="cls-3" d="M105.89,153.44a6.3,6.3,0,0,1-5.82-3.88L73.82,86.37a6.3,6.3,0,1,1,11.64-4.84l26.25,63.19a6.3,6.3,0,0,1-5.82,8.72Z"/><path class="cls-3" d="M103.26,154.13H72.81a4.2,4.2,0,1,1,0-8.39h30.45a4.2,4.2,0,1,1,0,8.39Z"/><path class="cls-3" d="M184.11,153.44a6.29,6.29,0,0,0,5.82-3.88l26.25-63.19a6.3,6.3,0,1,0-11.63-4.84L178.3,144.72a6.3,6.3,0,0,0,5.81,8.72Z"/><path class="cls-3" d="M186.74,154.13h30.45a4.2,4.2,0,1,0,0-8.39H186.74a4.2,4.2,0,1,0,0,8.39Z"/><rect class="cls-3" x="94.61" y="121.24" width="100.8" height="251.17"/><rect class="cls-4" x="104.69" y="131.65" width="80.64" height="235.63"/><path class="cls-5" d="M139.76,93.24a57.32,57.32,0,0,1-10.19.56c-3.38,0-6.72-.13-10-.2s-6.64-.13-9.91,0a35.67,35.67,0,0,0-4.85.58A11.75,11.75,0,0,0,100.21,96a9.33,9.33,0,0,1,4.06-3.29,23.21,23.21,0,0,1,5-1.55,47,47,0,0,1,10.29-.75,81.77,81.77,0,0,1,10.16.91C133.12,91.84,136.41,92.53,139.76,93.24Z"/><rect class="cls-6" x="76.76" y="181.79" width="17.85" height="185.5"/><rect class="cls-6" x="195.41" y="180.39" width="17.85" height="186.9"/><path class="cls-2" d="M187.31,383.5a6.56,6.56,0,0,1-6.56,6.56H109.27a6.57,6.57,0,0,1-6.57-6.56h0a6.56,6.56,0,0,1,6.57-6.56h71.48a6.56,6.56,0,0,1,6.56,6.56Z"/><rect class="cls-3" x="141.86" y="370.09" width="6.3" height="29.75"/><polygon class="cls-7" points="71.5 124.27 50.5 126.05 50.5 120.36 71.5 105.05 71.5 124.27"/><polygon class="cls-7" points="218.5 124.27 239.5 126.05 239.5 120.36 218.5 105.05 218.5 124.27"/><path class="cls-7" d="M87.68,358.33a2.32,2.32,0,0,1-2.31,2.32h0a2.31,2.31,0,0,1-2.31-2.32V190.77a2.31,2.31,0,0,1,2.31-2.32h0a2.31,2.31,0,0,1,2.31,2.32Z"/><path class="cls-7" d="M207,358.33a2.31,2.31,0,0,1-2.31,2.32h0a2.32,2.32,0,0,1-2.31-2.32V190.77a2.31,2.31,0,0,1,2.31-2.32h0a2.31,2.31,0,0,1,2.31,2.32Z"/><path class="cls-8" d="M96.18,39.58c4.35,4.11,1.58,8.34-1.13,12.83-3.78,6.25-11.12,16.8-18.63,9.69-6.18-5.87-1.3-12,4.35-16.5C84.82,42.38,91.83,35.45,96.18,39.58Z"/><path class="cls-9" d="M89.6,44.89C92,47.15,90.47,49.48,89,52c-2.08,3.44-6.12,9.24-10.25,5.33-3.4-3.23-.72-6.61,2.39-9.08C83.35,46.44,87.2,42.62,89.6,44.89Z"/><path class="cls-8" d="M193.81,39.58c-4.34,4.11-1.58,8.34,1.13,12.83,3.78,6.25,11.12,16.8,18.63,9.69,6.18-5.87,1.3-12-4.35-16.5C205.18,42.38,198.16,35.45,193.81,39.58Z"/><path class="cls-9" d="M200.4,44.89c-2.4,2.26-.87,4.59.61,7.06,2.08,3.44,6.12,9.24,10.25,5.33,3.4-3.23.72-6.61-2.39-9.08C206.64,46.44,202.79,42.62,200.4,44.89Z"/></svg>