<svg id="Objects" xmlns="http://www.w3.org/2000/svg" viewBox="0 0 290 430"><defs><style>.cls-1{fill:#e4332a;}.cls-2{fill:#00384c;}.cls-3{fill:#64bce8;}.cls-4{fill:#fff;opacity:0.3;}.cls-5{fill:#326070;}.cls-6{fill:#4e8dae;}.cls-7{opacity:0.6;}.cls-8{fill:#f29101;}.cls-9{fill:#f5a633;}</style></defs><title>car_azure</title><path class="cls-1" d="M193.1,387.77a6.11,6.11,0,0,1-6.1,6.11h0a6.11,6.11,0,0,1-6.1-6.11v-10a6.1,6.1,0,0,1,6.1-6.1h0a6.1,6.1,0,0,1,6.1,6.1Z"/><path class="cls-1" d="M109.1,387.77a6.11,6.11,0,0,1-6.1,6.11h0a6.11,6.11,0,0,1-6.1-6.11v-10a6.1,6.1,0,0,1,6.1-6.1h0a6.1,6.1,0,0,1,6.1,6.1Z"/><path class="cls-2" d="M220,323.85c0,5.47-2.33,9.9-7.8,9.9h0a9.9,9.9,0,0,1-9.9-9.9V275.93a9.9,9.9,0,0,1,9.9-9.9h0a9.9,9.9,0,0,1,9.9,9.9Z"/><path class="cls-2" d="M222.1,170.55a9.9,9.9,0,0,1-9.9,9.9h0a9.9,9.9,0,0,1-9.9-9.9V122.63a9.9,9.9,0,0,1,9.9-9.9h0c5.47,0,12,4.43,12,9.9Z"/><path class="cls-2" d="M87.7,323.85a9.9,9.9,0,0,1-9.9,9.9h0c-5.47,0-7.8-4.43-7.8-9.9l-2.1-47.92a9.9,9.9,0,0,1,9.9-9.9h0a9.9,9.9,0,0,1,9.9,9.9Z"/><path class="cls-2" d="M87.7,170.55a9.9,9.9,0,0,1-9.9,9.9h0a9.9,9.9,0,0,1-9.9-9.9l-2.1-47.92c0-5.47,6.53-9.9,12-9.9h0a9.9,9.9,0,0,1,9.9,9.9Z"/><path class="cls-3" d="M192.85,387.4a21,21,0,0,0,21-21l4.2-303.65c0-11.6-9.41-25.2-21-25.2H93c-11.6,0-21,13.6-21,25.2l4.2,303.65a21,21,0,0,0,21,21Z"/><path class="cls-4" d="M179.45,369.92a15.11,15.11,0,0,0,15.12-15.12l3-281.62c0-8.36-6.77-18.15-15.12-18.15H107.53c-8.35,0-15.12,9.79-15.12,18.15l3,281.62a15.11,15.11,0,0,0,15.12,15.12Z"/><path class="cls-3" d="M124.09,349.65A6.38,6.38,0,0,1,117.7,356h0a6.37,6.37,0,0,1-6.38-6.38V102.82a6.38,6.38,0,0,1,6.38-6.38h0a6.39,6.39,0,0,1,6.39,6.38Z"/><path class="cls-3" d="M178.69,349.65A6.38,6.38,0,0,1,172.3,356h0a6.37,6.37,0,0,1-6.38-6.38V102.82a6.38,6.38,0,0,1,6.38-6.38h0a6.39,6.39,0,0,1,6.39,6.38Z"/><rect class="cls-2" x="88.6" y="162.78" width="112.8" height="145.6" rx="21" ry="21"/><path class="cls-3" d="M112.54,241.88a6.32,6.32,0,0,1-6-4.21L83.27,171.52a6.3,6.3,0,0,1,11.88-4.19l23.33,66.15a6.31,6.31,0,0,1-3.85,8A6.38,6.38,0,0,1,112.54,241.88Z"/><path class="cls-3" d="M87.7,314.68a6.3,6.3,0,0,1-5.2-9.85l22.73-33.42a6.3,6.3,0,1,1,10.42,7.09L92.92,311.92A6.31,6.31,0,0,1,87.7,314.68Z"/><path class="cls-3" d="M110.44,255H82.61a4.2,4.2,0,1,1,0-8.4h27.83a4.2,4.2,0,0,1,0,8.4Z"/><path class="cls-3" d="M177.47,241.88a6.3,6.3,0,0,0,5.94-4.21l23.33-66.15a6.3,6.3,0,0,0-11.88-4.19l-23.33,66.15a6.31,6.31,0,0,0,3.85,8A6.38,6.38,0,0,0,177.47,241.88Z"/><path class="cls-3" d="M202.31,314.68a6.3,6.3,0,0,0,5.2-9.85l-22.73-33.42a6.3,6.3,0,1,0-10.42,7.09l22.73,33.42A6.31,6.31,0,0,0,202.31,314.68Z"/><path class="cls-3" d="M179.57,255H207.4a4.2,4.2,0,0,0,0-8.4H179.57a4.2,4.2,0,1,0,0,8.4Z"/><rect class="cls-3" x="102.65" y="211.08" width="84.7" height="74.2"/><rect class="cls-4" x="111.12" y="218.5" width="67.76" height="59.36"/><path class="cls-5" d="M139.75,171.53a41.77,41.77,0,0,1-9,1.3c-3,.23-5.94.31-8.87.46s-5.84.3-8.67.69a21,21,0,0,0-4.12,1,6.09,6.09,0,0,0-3.33,2.53,4.61,4.61,0,0,1,.85-2.2,8,8,0,0,1,1.74-1.69,15.59,15.59,0,0,1,4.3-2,36.5,36.5,0,0,1,9.09-1.44,68.11,68.11,0,0,1,9,.24C133.81,170.62,136.75,171.11,139.75,171.53Z"/><polygon class="cls-6" points="83.05 207.21 62.05 208.98 62.05 203.3 83.05 187.98 83.05 207.21"/><polygon class="cls-6" points="206.95 207.21 227.95 208.98 227.95 203.3 206.95 187.98 206.95 207.21"/><g class="cls-7"><path class="cls-6" d="M85.67,349a2.33,2.33,0,0,1-2.27,2.37h0A2.31,2.31,0,0,1,81,349.14L78.34,220.46a2.32,2.32,0,0,1,2.27-2.37h0A2.31,2.31,0,0,1,83,220.36Z"/><path class="cls-6" d="M204.33,349a2.33,2.33,0,0,0,2.28,2.37h0a2.31,2.31,0,0,0,2.36-2.27l2.69-128.68a2.32,2.32,0,0,0-2.26-2.37h0a2.31,2.31,0,0,0-2.37,2.27Z"/></g><path class="cls-8" d="M90.75,37c3.68,3.23,1.3,7.09-1,11.17-3.26,5.69-9.59,15.35-15.95,9.76-5.24-4.6-1-10.27,3.81-14.57C81.05,40.28,87.07,33.77,90.75,37Z"/><path class="cls-9" d="M84.82,41.89c2,1.78.71,3.9-.58,6.14-1.79,3.13-5.27,8.44-8.77,5.37-2.88-2.53-.57-5.65,2.1-8C79.48,43.69,82.79,40.11,84.82,41.89Z"/><path class="cls-8" d="M199.25,37c-3.68,3.23-1.3,7.09,1,11.17,3.27,5.69,9.59,15.35,16,9.76,5.24-4.6,1-10.27-3.81-14.57C209,40.28,202.93,33.77,199.25,37Z"/><path class="cls-9" d="M205.19,41.89c-2,1.78-.71,3.9.57,6.14,1.8,3.13,5.28,8.44,8.77,5.37,2.88-2.53.57-5.65-2.09-8C210.53,43.69,207.21,40.11,205.19,41.89Z"/></svg>