<svg id="Objects" xmlns="http://www.w3.org/2000/svg" viewBox="0 0 290 430"><defs><style>.cls-1{fill:#e4332a;}.cls-2{fill:#00384c;}.cls-3{fill:#ef5a28;}.cls-4{fill:#fff;opacity:0.2;}.cls-5{fill:#326070;}.cls-6{fill:#b3441f;}.cls-7{opacity:0.6;}.cls-8{fill:#f29101;}.cls-9{fill:#f5a633;}</style></defs><title>car_red</title><path class="cls-1" d="M196.58,378.16a7.58,7.58,0,0,1-7.58,7.59h0a7.58,7.58,0,0,1-7.58-7.59V365.39A7.58,7.58,0,0,1,189,357.8h0a7.58,7.58,0,0,1,7.58,7.59Z"/><path class="cls-1" d="M108.58,378.16a7.58,7.58,0,0,1-7.58,7.59h0a7.58,7.58,0,0,1-7.58-7.59V365.39A7.58,7.58,0,0,1,101,357.8h0a7.58,7.58,0,0,1,7.58,7.59Z"/><path class="cls-2" d="M235.3,310.39a10.51,10.51,0,0,1-10.5,10.5h0a10.51,10.51,0,0,1-10.5-10.5V269a10.5,10.5,0,0,1,10.5-10.5h0A10.5,10.5,0,0,1,235.3,269Z"/><path class="cls-2" d="M235.3,171.79a10.5,10.5,0,0,1-10.5,10.5h0a10.5,10.5,0,0,1-10.5-10.5V130.35a10.5,10.5,0,0,1,10.5-10.5h0a10.5,10.5,0,0,1,10.5,10.5Z"/><path class="cls-2" d="M75.7,310.39a10.51,10.51,0,0,1-10.5,10.5h0a10.51,10.51,0,0,1-10.5-10.5V269a10.5,10.5,0,0,1,10.5-10.5h0A10.5,10.5,0,0,1,75.7,269Z"/><path class="cls-2" d="M75.7,171.79a10.5,10.5,0,0,1-10.5,10.5h0a10.5,10.5,0,0,1-10.5-10.5V130.35a10.5,10.5,0,0,1,10.5-10.5h0a10.5,10.5,0,0,1,10.5,10.5Z"/><rect class="cls-3" x="61.7" y="44.25" width="166.6" height="333.2" rx="52.5" ry="52.5"/><rect class="cls-4" x="85.02" y="51" width="119.95" height="239.9" rx="37.8" ry="37.8"/><rect class="cls-3" x="106.61" y="74.88" width="76.77" height="148.93" rx="21" ry="21"/><path class="cls-2" d="M205.9,311.91c0,11.6-11.4,21-25.45,21h-70.9c-14,0-25.45-9.4-25.45-21V143.84c0-11.6,11.4-21,25.45-21h70.9c14.05,0,25.45,9.4,25.45,21Z"/><path class="cls-3" d="M110.23,198.25a6.32,6.32,0,0,1-5.59-3.37L68.42,125.76a6.3,6.3,0,0,1,11.16-5.85L115.8,189a6.29,6.29,0,0,1-5.57,9.22Z"/><path class="cls-3" d="M84.19,339.21a6.3,6.3,0,0,1-5.06-10l19.2-26a6.3,6.3,0,0,1,10.13,7.49l-19.19,26A6.3,6.3,0,0,1,84.19,339.21Z"/><path class="cls-3" d="M103.4,208.75H74a4.2,4.2,0,0,1,0-8.4h29.4a4.2,4.2,0,0,1,0,8.4Z"/><path class="cls-3" d="M106.55,251.8H74a4.2,4.2,0,0,1,0-8.4h32.55a4.2,4.2,0,1,1,0,8.4Z"/><path class="cls-3" d="M106.55,293.54H74a4.2,4.2,0,1,1,0-8.4h32.55a4.2,4.2,0,0,1,0,8.4Z"/><path class="cls-3" d="M179.77,198.25a6.32,6.32,0,0,0,5.59-3.37l36.22-69.12a6.3,6.3,0,0,0-11.16-5.85L174.2,189a6.3,6.3,0,0,0,5.57,9.22Z"/><path class="cls-3" d="M205.81,339.21a6.29,6.29,0,0,0,5.06-10l-19.2-26a6.3,6.3,0,1,0-10.13,7.49l19.2,26A6.28,6.28,0,0,0,205.81,339.21Z"/><path class="cls-3" d="M186.6,208.75H216a4.2,4.2,0,0,0,0-8.4H186.6a4.2,4.2,0,0,0,0,8.4Z"/><path class="cls-3" d="M183.45,251.8H216a4.2,4.2,0,1,0,0-8.4H183.45a4.2,4.2,0,1,0,0,8.4Z"/><path class="cls-3" d="M183.45,293.54H216a4.2,4.2,0,1,0,0-8.4H183.45a4.2,4.2,0,1,0,0,8.4Z"/><rect class="cls-3" x="96.7" y="167.45" width="96.6" height="148.4"/><rect class="cls-4" x="106.36" y="182.29" width="77.28" height="118.72"/><path class="cls-5" d="M137.3,131.75a67.42,67.42,0,0,1-10.07.91c-3.33.14-6.62.21-9.85.51A40.27,40.27,0,0,0,108,135a21,21,0,0,0-8.15,5.15,14.91,14.91,0,0,1,7.17-7.4A27,27,0,0,1,117.1,130a52.68,52.68,0,0,1,10.21.18C130.67,130.54,134,131.09,137.3,131.75Z"/><polygon class="cls-6" points="77.8 167.33 56.8 169.1 56.8 163.42 77.8 148.1 77.8 167.33"/><polygon class="cls-6" points="212.19 167.33 233.19 169.1 233.19 163.42 212.19 148.1 212.19 167.33"/><g class="cls-7"><path class="cls-6" d="M75.52,316.94a3,3,0,0,1-3,3h0a3,3,0,0,1-3-3V183.38a3,3,0,0,1,3-3h0a3,3,0,0,1,3,3Z"/><path class="cls-6" d="M220.42,316.94a3,3,0,0,1-3,3h0a3,3,0,0,1-3-3V183.38a3,3,0,0,1,3-3h0a3,3,0,0,1,3,3Z"/></g><path class="cls-8" d="M98.36,46.16c3.84,4.59.6,8.47-2.61,12.61-4.49,5.77-13,15.39-19.64,7.45-5.46-6.54.11-12.08,6.24-15.88C86.75,47.62,94.52,41.55,98.36,46.16Z"/><path class="cls-9" d="M91.25,51c2.11,2.53.33,4.66-1.44,6.94C87.34,61.09,82.66,66.38,79,62c-3-3.6.06-6.65,3.43-8.74C84.86,51.78,89.13,48.44,91.25,51Z"/><path class="cls-8" d="M191.63,46.16c-3.84,4.59-.6,8.47,2.61,12.61,4.49,5.77,13,15.39,19.64,7.45,5.46-6.54-.1-12.08-6.24-15.88C203.24,47.62,195.47,41.55,191.63,46.16Z"/><path class="cls-9" d="M198.75,51c-2.11,2.53-.33,4.66,1.43,6.94,2.47,3.18,7.16,8.47,10.8,4.1,3-3.6,0-6.65-3.43-8.74C205.13,51.78,200.86,48.44,198.75,51Z"/></svg>