<svg id="Objects" xmlns="http://www.w3.org/2000/svg" viewBox="0 0 290 430"><defs><style>.cls-1{fill:#e4332a;}.cls-2{fill:#00384c;}.cls-3{fill:#807f83;}.cls-4{fill:#fff;opacity:0.15;}.cls-5{fill:#326070;}.cls-6{fill:#605f63;}.cls-7{opacity:0.6;}.cls-8{fill:#f29101;}.cls-9{fill:#f5a633;}</style></defs><title>car_brown</title><path class="cls-1" d="M194.05,379.08a7,7,0,0,1-7.05,7h0a7,7,0,0,1-7-7v-9.41a7,7,0,0,1,7-7.05h0a7.05,7.05,0,0,1,7.05,7.05Z"/><path class="cls-1" d="M110.05,379.08a7,7,0,0,1-7,7h0a7,7,0,0,1-7-7v-9.41a7,7,0,0,1,7-7.05h0a7.05,7.05,0,0,1,7,7.05Z"/><path class="cls-2" d="M226.83,317.14a9.2,9.2,0,0,1-9.19,9.19h0a9.19,9.19,0,0,1-9.19-9.19V274.61a9.18,9.18,0,0,1,9.19-9.18h0a9.19,9.19,0,0,1,9.19,9.18Z"/><path class="cls-2" d="M227.69,163.84A9.2,9.2,0,0,1,218.5,173h0a9.2,9.2,0,0,1-9.19-9.19V121.31a9.19,9.19,0,0,1,9.19-9.18h0a9.19,9.19,0,0,1,9.19,9.18Z"/><path class="cls-2" d="M81.56,317.14a9.2,9.2,0,0,1-9.19,9.19h0a9.2,9.2,0,0,1-9.19-9.19V274.61a9.19,9.19,0,0,1,9.19-9.18h0a9.19,9.19,0,0,1,9.19,9.18Z"/><path class="cls-2" d="M80.69,163.84A9.2,9.2,0,0,1,71.5,173h0a9.2,9.2,0,0,1-9.19-9.19V121.31a9.19,9.19,0,0,1,9.19-9.18h0a9.19,9.19,0,0,1,9.19,9.18Z"/><path class="cls-3" d="M112.1,382c-11.6,0-42-28.31-42-39.9L68,92.18c0-35.27,40.91-48.3,52.5-48.3h49c11.6,0,52.66,14.08,52.5,48.3l-2.09,249.9c0,11.59-30.41,39.9-42,39.9Z"/><path class="cls-4" d="M121.32,294.74c-8.36,0-30.24-20.38-30.24-28.73L89.56,86.09c0-25.39,29.45-34.78,37.8-34.78h35.29c8.35,0,37.91,10.15,37.79,34.78L198.93,266c0,8.35-21.89,28.73-30.24,28.73Z"/><rect class="cls-3" x="118.84" y="77.66" width="50.31" height="170.97" rx="21" ry="21"/><rect class="cls-2" x="87.1" y="144.01" width="115.81" height="185.82" rx="21" ry="21"/><path class="cls-3" d="M114.56,214a6.29,6.29,0,0,1-5.06-2.54L75.9,166.29A6.3,6.3,0,1,1,86,158.76l33.6,45.15a6.31,6.31,0,0,1-5,10.07Z"/><path class="cls-3" d="M84.62,332.1a4.21,4.21,0,0,1-3.52-6.49l26.25-40.42a4.2,4.2,0,1,1,7.05,4.57L88.15,330.19A4.2,4.2,0,0,1,84.62,332.1Z"/><path class="cls-3" d="M110.88,257H81a4.2,4.2,0,0,1,0-8.4h29.93a4.2,4.2,0,1,1,0,8.4Z"/><path class="cls-3" d="M175.45,214a6.28,6.28,0,0,0,5.05-2.54l33.6-45.15a6.3,6.3,0,1,0-10.1-7.53l-33.6,45.15a6.31,6.31,0,0,0,5,10.07Z"/><path class="cls-3" d="M205.38,332.1a4.16,4.16,0,0,0,2.28-.68,4.2,4.2,0,0,0,1.24-5.81l-26.25-40.42a4.2,4.2,0,1,0-7.05,4.57l26.25,40.43A4.21,4.21,0,0,0,205.38,332.1Z"/><path class="cls-3" d="M179.13,257h29.92a4.2,4.2,0,0,0,0-8.4H179.13a4.2,4.2,0,0,0,0,8.4Z"/><rect class="cls-3" x="101.25" y="191.23" width="87.5" height="110.6"/><rect class="cls-4" x="110" y="202.29" width="70" height="88.48"/><path class="cls-5" d="M133.81,154.48a19.9,19.9,0,0,1-4.62.91c-1.55.14-3.1.24-4.64.27-3.08.1-6.13,0-9.16,0s-6-.07-9,.1a23,23,0,0,0-4.33.63,8.81,8.81,0,0,0-2,.77,5.18,5.18,0,0,0-1.63,1.51,4.47,4.47,0,0,1,1.07-2.18,8,8,0,0,1,2-1.52,16.8,16.8,0,0,1,4.57-1.64,40.32,40.32,0,0,1,9.38-.82,78.8,78.8,0,0,1,9.24.69c1.53.18,3,.42,4.56.64S132.25,154.34,133.81,154.48Z"/><polygon class="cls-6" points="80.95 188.58 59.95 190.35 59.95 184.67 80.95 169.35 80.95 188.58"/><polygon class="cls-6" points="209.05 188.58 230.05 190.35 230.05 184.67 209.05 169.35 209.05 188.58"/><g class="cls-7"><path class="cls-6" d="M82.29,333a2.39,2.39,0,0,1-2.36,2.44h0a2.39,2.39,0,0,1-2.44-2.36L75.41,198.22a2.41,2.41,0,0,1,2.37-2.44h0a2.41,2.41,0,0,1,2.44,2.37Z"/><path class="cls-6" d="M207.71,333a2.39,2.39,0,0,0,2.36,2.44h0a2.39,2.39,0,0,0,2.44-2.36l2.08-134.83a2.41,2.41,0,0,0-2.37-2.44h0a2.42,2.42,0,0,0-2.44,2.37Z"/></g><path class="cls-8" d="M96.5,52.1c3.33,3.42.64,7.07-2,10.94-3.72,5.39-10.81,14.51-16.56,8.6-4.75-4.88-.11-10.2,5-14.13C86.65,54.7,93.16,48.67,96.5,52.1Z"/><path class="cls-9" d="M90.22,56.7c1.83,1.88.35,3.89-1.11,6-2,3-5.94,8-9.11,4.73-2.61-2.68-.06-5.61,2.78-7.77C84.81,58.13,88.39,54.81,90.22,56.7Z"/><path class="cls-8" d="M193.49,52.1c-3.33,3.42-.65,7.07,2,10.94,3.73,5.39,10.81,14.51,16.57,8.6,4.74-4.88.1-10.2-5-14.13C203.33,54.7,196.82,48.67,193.49,52.1Z"/><path class="cls-9" d="M199.76,56.7c-1.83,1.88-.35,3.89,1.11,6,2,3,5.95,8,9.11,4.73,2.61-2.68.06-5.61-2.77-7.77C205.18,58.13,201.6,54.81,199.76,56.7Z"/></svg>