<svg id="Objects" xmlns="http://www.w3.org/2000/svg" viewBox="0 0 290 430"><defs><style>.cls-1{fill:#e4332a;}.cls-2{fill:#00384c;}.cls-3{fill:#f1bb3b;}.cls-4{fill:#fff;opacity:0.3;}.cls-5{fill:#326070;}.cls-6{fill:#bb9942;}.cls-7{opacity:0.6;}.cls-8{fill:#f29101;}.cls-9{fill:#f5a633;}</style></defs><title>car_yellow</title><path class="cls-1" d="M201.36,394.43A6.36,6.36,0,0,1,195,400.8h0a6.36,6.36,0,0,1-6.36-6.37v-9.6a6.36,6.36,0,0,1,6.36-6.36h0a6.36,6.36,0,0,1,6.36,6.36Z"/><path class="cls-1" d="M101.36,394.43A6.36,6.36,0,0,1,95,400.8h0a6.36,6.36,0,0,1-6.36-6.37v-9.6A6.36,6.36,0,0,1,95,378.47h0a6.36,6.36,0,0,1,6.36,6.36Z"/><path class="cls-2" d="M235.7,332.15a8.8,8.8,0,0,1-8.8,8.8h0a8.8,8.8,0,0,1-8.8-8.8v-47.5a8.8,8.8,0,0,1,8.8-8.8h0a8.8,8.8,0,0,1,8.8,8.8Z"/><path class="cls-2" d="M235.7,162a8.8,8.8,0,0,1-8.8,8.81h0a8.8,8.8,0,0,1-8.8-8.81V114.55a8.8,8.8,0,0,1,8.8-8.8h0a8.8,8.8,0,0,1,8.8,8.8Z"/><path class="cls-2" d="M71.9,332.15a8.8,8.8,0,0,1-8.8,8.8h0a8.8,8.8,0,0,1-8.8-8.8v-47.5a8.8,8.8,0,0,1,8.8-8.8h0a8.8,8.8,0,0,1,8.8,8.8Z"/><path class="cls-2" d="M71.9,162a8.8,8.8,0,0,1-8.8,8.81h0A8.8,8.8,0,0,1,54.3,162V114.55a8.8,8.8,0,0,1,8.8-8.8h0a8.8,8.8,0,0,1,8.8,8.8Z"/><path class="cls-3" d="M230.06,357.64c0,19.72-17.58,35.7-39.25,35.7H99.2c-21.66,0-39.25-16-39.25-35.7V64.9C60,45.18,77.54,29.2,99.2,29.2h91.61c21.67,0,39.25,16,39.25,35.7Z"/><path class="cls-4" d="M201.58,270.46a25.91,25.91,0,0,1-26.12,25.7H114.55a25.92,25.92,0,0,1-26.12-25.7V59.69A25.92,25.92,0,0,1,114.55,34h60.91a25.91,25.91,0,0,1,26.12,25.71Z"/><path class="cls-3" d="M126.75,301.09c0,3.52-2.49,6.38-5.57,6.38h0c-3.08,0-5.57-2.86-5.57-6.38V54.26c0-3.53,2.49-6.39,5.57-6.39h0c3.08,0,5.57,2.86,5.57,6.39Z"/><path class="cls-3" d="M174.41,301.09c0,3.52-2.5,6.38-5.58,6.38h0c-3.07,0-5.57-2.86-5.57-6.38V54.26c0-3.53,2.5-6.39,5.57-6.39h0c3.08,0,5.58,2.86,5.58,6.39Z"/><path class="cls-2" d="M212,353c0,11.6-11,21-24.65,21H102.7C89.08,374,78,364.62,78,353V100c0-11.6,11-21,24.66-21h84.61c13.63,0,24.65,9.4,24.65,21Z"/><path class="cls-5" d="M146.41,87.72a23.45,23.45,0,0,1-5.51.93c-1.86.11-3.72.14-5.56.09-3.68-.06-7.33-.33-10.94-.55s-7.21-.46-10.77-.39-7.13.35-10.27,2.38a10.6,10.6,0,0,1,4.54-3.38,23.58,23.58,0,0,1,5.51-1.45A52.49,52.49,0,0,1,124.6,85c3.69.24,7.33.7,11,1.26S142.72,87.5,146.41,87.72Z"/><path class="cls-3" d="M106.63,132.52a7,7,0,0,1-6.29-3.65l-24-47.25a6.07,6.07,0,0,1,3.38-8.36,7.21,7.21,0,0,1,9.19,3.07l24,47.25a6.08,6.08,0,0,1-3.38,8.36A7.4,7.4,0,0,1,106.63,132.52Z"/><path class="cls-3" d="M106.62,161.4H74.29a4.22,4.22,0,1,1,0-8.4h32.33a4.22,4.22,0,1,1,0,8.4Z"/><path class="cls-3" d="M86.41,380.32a7.44,7.44,0,0,1-3.54-.89,6,6,0,0,1-2.39-8.64l23.09-35.17a7.31,7.31,0,0,1,9.49-2.18,6,6,0,0,1,2.39,8.64L92.37,377.25A7.12,7.12,0,0,1,86.41,380.32Z"/><path class="cls-3" d="M113.55,206H74.29a4.22,4.22,0,1,1,0-8.4h39.26a4.22,4.22,0,1,1,0,8.4Z"/><path class="cls-3" d="M122.78,245.57H72a4.22,4.22,0,1,1,0-8.4h50.8a4.22,4.22,0,1,1,0,8.4Z"/><path class="cls-3" d="M116.44,285.3H72a4.22,4.22,0,1,1,0-8.4h44.46a4.22,4.22,0,1,1,0,8.4Z"/><path class="cls-3" d="M116.44,327.82H72a4.22,4.22,0,1,1,0-8.4h44.46a4.22,4.22,0,1,1,0,8.4Z"/><path class="cls-3" d="M183.38,132.52a7,7,0,0,0,6.3-3.65l24-47.25a6.07,6.07,0,0,0-3.38-8.36,7.23,7.23,0,0,0-9.2,3.07l-24,47.25a6.08,6.08,0,0,0,3.39,8.36A7.31,7.31,0,0,0,183.38,132.52Z"/><path class="cls-3" d="M183.39,161.4h32.33a4.22,4.22,0,1,0,0-8.4H183.39a4.22,4.22,0,1,0,0,8.4Z"/><path class="cls-3" d="M203.61,380.32a7.43,7.43,0,0,0,3.53-.89,6,6,0,0,0,2.4-8.64l-23.08-35.17a7.34,7.34,0,0,0-9.51-2.18,6,6,0,0,0-2.4,8.64l23.09,35.17A7.12,7.12,0,0,0,203.61,380.32Z"/><path class="cls-3" d="M176.46,206h39.26a4.22,4.22,0,1,0,0-8.4H176.46a4.22,4.22,0,1,0,0,8.4Z"/><path class="cls-3" d="M167.23,245.57H218a4.22,4.22,0,1,0,0-8.4h-50.8a4.22,4.22,0,1,0,0,8.4Z"/><path class="cls-3" d="M173.57,285.3H218a4.22,4.22,0,1,0,0-8.4H173.57a4.22,4.22,0,1,0,0,8.4Z"/><path class="cls-3" d="M173.57,327.82H218a4.22,4.22,0,1,0,0-8.4H173.57a4.22,4.22,0,1,0,0,8.4Z"/><rect class="cls-3" x="94.87" y="110.47" width="100.27" height="245"/><rect class="cls-4" x="103.45" y="119.57" width="83.12" height="226.8"/><polygon class="cls-6" points="71.5 111.32 50.5 113.1 50.5 107.42 71.5 92.1 71.5 111.32"/><polygon class="cls-6" points="218.5 111.32 239.5 113.1 239.5 107.42 218.5 92.1 218.5 111.32"/><g class="cls-7"><path class="cls-6" d="M71.82,351.3a2.42,2.42,0,0,1-2.42,2.42h0A2.42,2.42,0,0,1,67,351.3V120.24a2.42,2.42,0,0,1,2.42-2.42h0a2.42,2.42,0,0,1,2.42,2.42Z"/><path class="cls-6" d="M223,351.3a2.42,2.42,0,0,1-2.42,2.42h0a2.42,2.42,0,0,1-2.42-2.42V120.24a2.42,2.42,0,0,1,2.42-2.42h0a2.42,2.42,0,0,1,2.42,2.42Z"/></g><path class="cls-8" d="M89.36,30.88c3.84,4.59.6,8.47-2.61,12.61-4.49,5.77-13,15.39-19.64,7.45-5.46-6.55.11-12.09,6.24-15.88C77.75,32.34,85.52,26.27,89.36,30.88Z"/><path class="cls-9" d="M82.25,35.69c2.11,2.53.33,4.66-1.44,6.94-2.47,3.17-7.15,8.46-10.8,4.09-3-3.59.06-6.64,3.43-8.73C75.86,36.49,80.13,33.16,82.25,35.69Z"/><path class="cls-8" d="M200.63,30.88c-3.84,4.59-.6,8.47,2.61,12.61,4.49,5.77,13,15.39,19.64,7.45,5.46-6.55-.1-12.09-6.24-15.88C212.24,32.34,204.47,26.27,200.63,30.88Z"/><path class="cls-9" d="M207.75,35.69c-2.12,2.53-.33,4.66,1.43,6.94,2.47,3.17,7.16,8.46,10.8,4.09,3-3.59-.06-6.64-3.43-8.73C214.13,36.49,209.86,33.16,207.75,35.69Z"/></svg>