<svg id="Objects" xmlns="http://www.w3.org/2000/svg" viewBox="0 0 290 430"><defs><style>.cls-1{fill:#e4332a;}.cls-2{fill:#00384c;}.cls-3{fill:#4384f4;}.cls-4{fill:#fff;opacity:0.15;}.cls-5{fill:#326070;}.cls-6{fill:#3164b7;}.cls-7{opacity:0.6;}.cls-8{fill:#f29101;}.cls-9{fill:#f5a633;}</style></defs><title>car_blue</title><path class="cls-1" d="M206.53,370.74a6.52,6.52,0,0,1-6.53,6.52h0a6.52,6.52,0,0,1-6.52-6.52V356.28a6.52,6.52,0,0,1,6.52-6.52h0a6.52,6.52,0,0,1,6.53,6.52Z"/><path class="cls-1" d="M96.53,370.74A6.52,6.52,0,0,1,90,377.26h0a6.52,6.52,0,0,1-6.52-6.52V356.28A6.52,6.52,0,0,1,90,349.76h0a6.52,6.52,0,0,1,6.53,6.52Z"/><path class="cls-2" d="M233.07,335.59a8.27,8.27,0,0,1-8.27,8.27h0a8.27,8.27,0,0,1-8.27-8.27V290.18a8.27,8.27,0,0,1,8.27-8.27h0a8.27,8.27,0,0,1,8.27,8.27Z"/><path class="cls-2" d="M233.07,173.89a8.27,8.27,0,0,1-8.27,8.27h0a8.27,8.27,0,0,1-8.27-8.27V128.48a8.27,8.27,0,0,1,8.27-8.27h0a8.27,8.27,0,0,1,8.27,8.27Z"/><path class="cls-2" d="M73.47,335.59a8.27,8.27,0,0,1-8.27,8.27h0a8.27,8.27,0,0,1-8.27-8.27V290.18a8.27,8.27,0,0,1,8.27-8.27h0a8.27,8.27,0,0,1,8.27,8.27Z"/><path class="cls-2" d="M73.47,173.89a8.27,8.27,0,0,1-8.27,8.27h0a8.27,8.27,0,0,1-8.27-8.27V128.48a8.27,8.27,0,0,1,8.27-8.27h0a8.27,8.27,0,0,1,8.27,8.27Z"/><path class="cls-3" d="M62.16,369.07V90.71c0-22.49,18.24-36.66,40.75-36.66h84.2c22.49,0,40.74,14.17,40.74,36.66V369.07"/><path class="cls-4" d="M87.26,182.17V84.65c0-16.19,12.71-26.4,28.39-26.4h58.71c15.68,0,28.4,10.21,28.4,26.4v97.52"/><path class="cls-3" d="M102.85,163.34V92.15c0-11.82,9.28-19.27,20.73-19.27h42.85c11.45,0,20.73,7.45,20.73,19.27v71.19"/><rect class="cls-2" x="83.41" y="275.26" width="122.8" height="84.7" rx="4.2" ry="4.2"/><rect class="cls-3" x="140.81" y="332.83" width="8.4" height="36.24"/><path class="cls-2" d="M83.81,184.26V123.84a21,21,0,0,1,21-21H185.2a21,21,0,0,1,21,21v60.42"/><path class="cls-3" d="M106.94,166.94a6.29,6.29,0,0,1-5.85-4L77.16,103.12a6.3,6.3,0,1,1,11.71-4.67l23.92,59.85a6.31,6.31,0,0,1-3.51,8.19A6.44,6.44,0,0,1,106.94,166.94Z"/><path class="cls-3" d="M106.94,171.14H76a4.2,4.2,0,1,1,0-8.4h31a4.2,4.2,0,1,1,0,8.4Z"/><path class="cls-3" d="M183.06,166.94a6.32,6.32,0,0,0,5.86-4l23.92-59.85a6.3,6.3,0,1,0-11.7-4.67L177.21,158.3a6.3,6.3,0,0,0,3.52,8.19A6.39,6.39,0,0,0,183.06,166.94Z"/><path class="cls-3" d="M183.06,171.14h31a4.2,4.2,0,1,0,0-8.4h-31a4.2,4.2,0,0,0,0,8.4Z"/><rect class="cls-3" x="96.71" y="135.25" width="96.6" height="49.01"/><rect class="cls-4" x="106.37" y="146.04" width="77.28" height="38.22"/><path class="cls-5" d="M135.2,110.76a45.15,45.15,0,0,1-8.87.7c-2.94.05-5.84,0-8.71,0a62.27,62.27,0,0,0-8.47.49c-2.74.45-5.44,1.18-7.54,3.36a7.66,7.66,0,0,1,2.77-3.67,14.33,14.33,0,0,1,4.2-2.08,30,30,0,0,1,9-1.25,57.14,57.14,0,0,1,8.9.71C129.43,109.45,132.29,110.08,135.2,110.76Z"/><polygon class="cls-6" points="79.63 149.26 59.89 150.92 59.89 145.59 79.63 131.18 79.63 149.26"/><polygon class="cls-6" points="210.38 149.26 230.12 150.92 230.12 145.59 210.38 131.18 210.38 149.26"/><g class="cls-7"><path class="cls-6" d="M75,128.24a2.48,2.48,0,0,1-2.48,2.47h0a2.47,2.47,0,0,1-2.47-2.47V84.88a2.46,2.46,0,0,1,2.47-2.47h0A2.47,2.47,0,0,1,75,84.88Z"/><path class="cls-6" d="M219.93,128.24a2.48,2.48,0,0,1-2.48,2.47h0a2.47,2.47,0,0,1-2.47-2.47V84.88a2.46,2.46,0,0,1,2.47-2.47h0a2.47,2.47,0,0,1,2.48,2.47Z"/></g><path class="cls-8" d="M95.59,54.75c2.53,4.46-1,7.35-4.51,10.46C86.15,69.54,77,76.63,72.66,68.92c-3.6-6.35,2.23-10.34,8.25-12.77C85.22,54.42,93.06,50.28,95.59,54.75Z"/><path class="cls-9" d="M88.38,58.26c1.39,2.45-.54,4-2.49,5.75-2.71,2.39-7.73,6.29-10.13,2-2-3.5,1.23-5.7,4.54-7C82.67,58.08,87,55.8,88.38,58.26Z"/><path class="cls-8" d="M194.42,54.75c-2.54,4.46,1,7.35,4.51,10.46,4.93,4.33,14.06,11.42,18.42,3.71,3.6-6.35-2.23-10.34-8.25-12.77C204.79,54.42,196.94,50.28,194.42,54.75Z"/><path class="cls-9" d="M201.63,58.26c-1.39,2.45.54,4,2.48,5.75,2.71,2.39,7.73,6.29,10.14,2,2-3.5-1.23-5.7-4.54-7C207.34,58.08,203,55.8,201.63,58.26Z"/><rect class="cls-6" x="68.01" y="182.16" width="154" height="158.9"/><rect class="cls-4" x="83.41" y="198.05" width="123.2" height="127.12"/></svg>