<?xml version="1.0" encoding="utf-8"?>
<!-- Generator: Adobe Illustrator 22.0.1, SVG Export Plug-In . SVG Version: 6.00 Build 0)  -->
<svg version="1.1" id="Livello_1" xmlns="http://www.w3.org/2000/svg" xmlns:xlink="http://www.w3.org/1999/xlink" x="0px" y="0px"
	 viewBox="0 0 750 750" style="enable-background:new 0 0 750 750;" xml:space="preserve">
<style type="text/css">
	.st0{fill:none;stroke:#ED1C24;stroke-width:2;stroke-miterlimit:10;}
	.st1{fill:#FFFFFF;}
	.st2{fill:none;stroke:#000000;stroke-width:2;stroke-miterlimit:10;}
	.st3{font-family:'Courier New'; font-weight: bold;}
	.st4{font-size:20px;}
	.st5{fill:#ED1C24;}
	.st6{font-size:18px;}
</style>
<line class="st0" x1="561.5" y1="541.5" x2="680" y2="541.5"/>
<rect x="600.8" y="527.7" class="st1" width="40" height="27.6"/>
<line class="st0" x1="541.5" y1="561.5" x2="541.5" y2="680"/>
<rect x="521.5" y="607" class="st1" width="40" height="27.6"/>
<line class="st2" x1="70" y1="524" x2="360" y2="524"/>
<rect x="177" y="502" class="st1" width="76" height="44.5"/>
<rect x="70" y="70" class="st2" width="290" height="414.5"/>
<rect x="70" y="70" class="st2" width="402.5" height="206.5"/>
<polyline class="st2" points="77.5,531.5 70,524 77.5,516.5 "/>
<polyline class="st2" points="352.5,531.5 360,524 352.5,516.5 "/>
<text transform="matrix(1 0 0 1 196.9971 531.5)" class="st3 st4">RVW</text>
<line class="st2" x1="70" y1="317" x2="472.5" y2="317"/>
<rect x="238.3" y="295" class="st1" width="66" height="44.5"/>
<polyline class="st2" points="77.5,324.5 70,317 77.5,309.5 "/>
<polyline class="st2" points="465,324.5 472.5,317 465,309.5 "/>
<text transform="matrix(1 0 0 1 259.2483 324.5)" class="st3 st4">SW</text>
<line class="st2" x1="400" y1="70" x2="400" y2="484.5"/>
<rect x="368.8" y="151" class="st1" width="62.5" height="44.5"/>
<text transform="matrix(1 0 0 1 381.9971 180.05)" class="st3 st4">RVH</text>
<polyline class="st2" points="392.5,477 400,484.5 407.5,477 "/>
<polyline class="st2" points="407.5,77.5 400,70 392.5,77.5 "/>
<line class="st2" x1="512.5" y1="70" x2="512.5" y2="276.5"/>
<polyline class="st2" points="520,77.5 512.5,70 505,77.5 "/>
<polyline class="st2" points="505,269 512.5,276.5 520,269 "/>
<rect x="481.3" y="151" class="st1" width="62.5" height="44.5"/>
<text transform="matrix(1 0 0 1 500.498 180.05)" class="st3 st4">SH</text>
<rect x="561.5" y="561.5" class="st0" width="118.5" height="118.5"/>
<polyline class="st0" points="675.5,546 680,541.5 675.5,537 "/>
<polyline class="st0" points="566,537 561.5,541.5 566,546 "/>
<polyline class="st0" points="546,566 541.5,561.5 537,566 "/>
<polyline class="st0" points="537,675.5 541.5,680 546,675.5 "/>
<text transform="matrix(1 0 0 1 530.7039 626.8728)" class="st5 st3 st6">MS</text>
<text transform="matrix(1 0 0 1 609.9514 547.6261)" class="st5 st3 st6">MS</text>
</svg>
