<?xml version="1.0" encoding="utf-8"?>
<!-- Generator: Adobe Illustrator 22.0.1, SVG Export Plug-In . SVG Version: 6.00 Build 0)  -->
<svg version="1.1" id="Livello_1" xmlns="http://www.w3.org/2000/svg" xmlns:xlink="http://www.w3.org/1999/xlink" x="0px" y="0px"
	 viewBox="0 0 375 375" style="enable-background:new 0 0 375 375;" xml:space="preserve">
<style type="text/css">
	.st0{fill:none;stroke:#ED1C24;stroke-miterlimit:10;}
	.st1{fill:#FFFFFF;}
	.st2{fill:none;stroke:#000000;stroke-miterlimit:10;}
	.st3{font-family:'Courier New';font-weight:bold;}
	.st4{font-size:10px;}
	.st5{fill:#ED1C24;}
	.st6{font-size:9px;}
</style>
<line class="st0" x1="280.8" y1="270.8" x2="340" y2="270.8"/>
<rect x="300.4" y="263.9" class="st1" width="20" height="13.8"/>
<line class="st0" x1="270.8" y1="280.8" x2="270.8" y2="340"/>
<rect x="260.8" y="303.5" class="st1" width="20" height="13.8"/>
<line class="st2" x1="35" y1="262" x2="180" y2="262"/>
<rect x="88.5" y="251" class="st1" width="38" height="22.3"/>
<rect x="35" y="35" class="st2" width="145" height="207.3"/>
<rect x="35" y="35" class="st2" width="201.3" height="103.3"/>
<polyline class="st2" points="38.8,265.8 35,262 38.8,258.3 "/>
<polyline class="st2" points="176.3,265.8 180,262 176.3,258.3 "/>
<text transform="matrix(1 0 0 1 98.4985 265.75)" class="st3 st4">RVW</text>
<line class="st2" x1="35" y1="158.5" x2="236.3" y2="158.5"/>
<rect x="119.2" y="147.5" class="st1" width="33" height="22.3"/>
<polyline class="st2" points="38.8,162.3 35,158.5 38.8,154.8 "/>
<polyline class="st2" points="232.5,162.3 236.3,158.5 232.5,154.8 "/>
<text transform="matrix(1 0 0 1 129.624 162.25)" class="st3 st4">SW</text>
<line class="st2" x1="200" y1="35" x2="200" y2="242.3"/>
<rect x="184.4" y="75.5" class="st1" width="31.3" height="22.3"/>
<text transform="matrix(1 0 0 1 190.998 90.0249)" class="st3 st4">RVH</text>
<polyline class="st2" points="196.3,238.5 200,242.3 203.8,238.5 "/>
<polyline class="st2" points="203.8,38.8 200,35 196.3,38.8 "/>
<line class="st2" x1="256.3" y1="35" x2="256.3" y2="138.3"/>
<polyline class="st2" points="260,38.8 256.3,35 252.5,38.8 "/>
<polyline class="st2" points="252.5,134.5 256.3,138.3 260,134.5 "/>
<rect x="240.6" y="75.5" class="st1" width="31.3" height="22.3"/>
<text transform="matrix(1 0 0 1 250.249 90.0249)" class="st3 st4">SH</text>
<rect x="280.8" y="280.8" class="st0" width="59.3" height="59.3"/>
<polyline class="st0" points="337.8,273 340,270.8 337.8,268.5 "/>
<polyline class="st0" points="283,268.5 280.8,270.8 283,273 "/>
<polyline class="st0" points="273,283 270.8,280.8 268.5,283 "/>
<polyline class="st0" points="268.5,337.8 270.8,340 273,337.8 "/>
<text transform="matrix(1 0 0 1 265.3516 313.4365)" class="st5 st3 st6">MS</text>
<text transform="matrix(1 0 0 1 304.9756 273.8125)" class="st5 st3 st6">MS</text>
</svg>
